<svg id="visual" viewBox="0 0 960 540" width="960" height="540" xmlns="http://www.w3.org/2000/svg" xmlns:xlink="http://www.w3.org/1999/xlink" version="1.1"><rect x="0" y="0" width="960" height="540" fill="#001220"></rect><defs><linearGradient id="grad1_0" x1="43.8%" y1="0%" x2="100%" y2="100%"><stop offset="14.444444444444446%" stop-color="#001220" stop-opacity="1"></stop><stop offset="85.55555555555554%" stop-color="#001220" stop-opacity="1"></stop></linearGradient></defs><defs><linearGradient id="grad2_0" x1="0%" y1="0%" x2="56.3%" y2="100%"><stop offset="14.444444444444446%" stop-color="#001220" stop-opacity="1"></stop><stop offset="85.55555555555554%" stop-color="#001220" stop-opacity="1"></stop></linearGradient></defs><g transform="translate(960, 0)"><path d="M0 486C-50.5 440.6 -101 395.1 -153.1 369.6C-205.2 344 -258.8 338.2 -312.5 312.5C-366.3 286.9 -420.1 241.4 -449 186C-477.9 130.6 -482 65.3 -486 0L0 0Z" fill="#FBAE3C"></path></g><g transform="translate(0, 540)"><path d="M0 -486C48.7 -446.7 97.4 -407.3 161.9 -390.8C226.4 -374.3 306.7 -380.6 343.7 -343.7C380.6 -306.7 374.3 -226.4 390.8 -161.9C407.3 -97.4 446.7 -48.7 486 0L0 0Z" fill="#FBAE3C"></path></g></svg>