<svg id="visual" viewBox="0 0 960 540" width="960" height="540" xmlns="http://www.w3.org/2000/svg" xmlns:xlink="http://www.w3.org/1999/xlink" version="1.1"><rect x="0" y="0" width="960" height="540" fill="#001220"></rect><defs><linearGradient id="grad1_0" x1="43.8%" y1="0%" x2="100%" y2="100%"><stop offset="14.444444444444446%" stop-color="#001220" stop-opacity="1"></stop><stop offset="85.55555555555554%" stop-color="#001220" stop-opacity="1"></stop></linearGradient></defs><defs><linearGradient id="grad2_0" x1="0%" y1="0%" x2="56.3%" y2="100%"><stop offset="14.444444444444446%" stop-color="#001220" stop-opacity="1"></stop><stop offset="85.55555555555554%" stop-color="#001220" stop-opacity="1"></stop></linearGradient></defs><g transform="translate(960, 0)"><path d="M0 486C-56 466.1 -112 446.2 -177.2 427.8C-242.4 409.4 -316.7 392.5 -343.7 343.7C-370.6 294.9 -350 214.1 -365.9 151.5C-381.7 88.9 -433.8 44.5 -486 0L0 0Z" fill="#FBAE3C"></path></g><g transform="translate(0, 540)"><path d="M0 -486C59.1 -469 118.2 -452 178.7 -431.5C239.2 -410.9 301.2 -386.8 343.7 -343.7C386.1 -300.5 409.1 -238.4 429.6 -177.9C450.1 -117.5 468 -58.8 486 0L0 0Z" fill="#FBAE3C"></path></g></svg>