<svg id="visual" viewBox="0 0 960 540" width="960" height="540" xmlns="http://www.w3.org/2000/svg" xmlns:xlink="http://www.w3.org/1999/xlink" version="1.1"><rect x="0" y="0" width="960" height="540" fill="#002233"></rect><path d="M0 349L22.8 356C45.7 363 91.3 377 137 379.7C182.7 382.3 228.3 373.7 274 378.7C319.7 383.7 365.3 402.3 411.2 414.7C457 427 503 433 548.8 428.3C594.7 423.7 640.3 408.3 686 411C731.7 413.7 777.3 434.3 823 434.7C868.7 435 914.3 415 937.2 405L960 395L960 541L937.2 541C914.3 541 868.7 541 823 541C777.3 541 731.7 541 686 541C640.3 541 594.7 541 548.8 541C503 541 457 541 411.2 541C365.3 541 319.7 541 274 541C228.3 541 182.7 541 137 541C91.3 541 45.7 541 22.8 541L0 541Z" fill="#0066FF" stroke-linecap="round" stroke-linejoin="miter"></path></svg>