<svg id="visual" viewBox="0 0 960 540" width="960" height="540" xmlns="http://www.w3.org/2000/svg" xmlns:xlink="http://www.w3.org/1999/xlink" version="1.1"><rect x="0" y="0" width="960" height="540" fill="#001220"></rect><path d="M0 373L22.8 369.2C45.7 365.3 91.3 357.7 137 358.3C182.7 359 228.3 368 274 364.2C319.7 360.3 365.3 343.7 411.2 345.8C457 348 503 369 548.8 372.5C594.7 376 640.3 362 686 357.3C731.7 352.7 777.3 357.3 823 359.3C868.7 361.3 914.3 360.7 937.2 360.3L960 360L960 541L937.2 541C914.3 541 868.7 541 823 541C777.3 541 731.7 541 686 541C640.3 541 594.7 541 548.8 541C503 541 457 541 411.2 541C365.3 541 319.7 541 274 541C228.3 541 182.7 541 137 541C91.3 541 45.7 541 22.8 541L0 541Z" fill="#fa7268"></path><path d="M0 414L22.8 411C45.7 408 91.3 402 137 397.8C182.7 393.7 228.3 391.3 274 397.3C319.7 403.3 365.3 417.7 411.2 422.5C457 427.3 503 422.7 548.8 410.8C594.7 399 640.3 380 686 371.3C731.7 362.7 777.3 364.3 823 364.7C868.7 365 914.3 364 937.2 363.5L960 363L960 541L937.2 541C914.3 541 868.7 541 823 541C777.3 541 731.7 541 686 541C640.3 541 594.7 541 548.8 541C503 541 457 541 411.2 541C365.3 541 319.7 541 274 541C228.3 541 182.7 541 137 541C91.3 541 45.7 541 22.8 541L0 541Z" fill="#ef5f67"></path><path d="M0 449L22.8 446.8C45.7 444.7 91.3 440.3 137 431.7C182.7 423 228.3 410 274 405.3C319.7 400.7 365.3 404.3 411.2 404.8C457 405.3 503 402.7 548.8 409.8C594.7 417 640.3 434 686 441.5C731.7 449 777.3 447 823 440.3C868.7 433.7 914.3 422.3 937.2 416.7L960 411L960 541L937.2 541C914.3 541 868.7 541 823 541C777.3 541 731.7 541 686 541C640.3 541 594.7 541 548.8 541C503 541 457 541 411.2 541C365.3 541 319.7 541 274 541C228.3 541 182.7 541 137 541C91.3 541 45.7 541 22.8 541L0 541Z" fill="#e34c67"></path><path d="M0 455L22.8 459.5C45.7 464 91.3 473 137 476.7C182.7 480.3 228.3 478.7 274 474.7C319.7 470.7 365.3 464.3 411.2 461C457 457.7 503 457.3 548.8 456.8C594.7 456.3 640.3 455.7 686 459.7C731.7 463.7 777.3 472.3 823 471.7C868.7 471 914.3 461 937.2 456L960 451L960 541L937.2 541C914.3 541 868.7 541 823 541C777.3 541 731.7 541 686 541C640.3 541 594.7 541 548.8 541C503 541 457 541 411.2 541C365.3 541 319.7 541 274 541C228.3 541 182.7 541 137 541C91.3 541 45.7 541 22.8 541L0 541Z" fill="#d53867"></path><path d="M0 503L22.8 500.2C45.7 497.3 91.3 491.7 137 487.2C182.7 482.7 228.3 479.3 274 481.2C319.7 483 365.3 490 411.2 496C457 502 503 507 548.8 509.7C594.7 512.3 640.3 512.7 686 509C731.7 505.3 777.3 497.7 823 496.5C868.7 495.3 914.3 500.7 937.2 503.3L960 506L960 541L937.2 541C914.3 541 868.7 541 823 541C777.3 541 731.7 541 686 541C640.3 541 594.7 541 548.8 541C503 541 457 541 411.2 541C365.3 541 319.7 541 274 541C228.3 541 182.7 541 137 541C91.3 541 45.7 541 22.8 541L0 541Z" fill="#c62368"></path></svg>