<svg id="visual" viewBox="0 0 960 540" width="960" height="540" xmlns="http://www.w3.org/2000/svg" xmlns:xlink="http://www.w3.org/1999/xlink" version="1.1"><rect x="0" y="0" width="960" height="540" fill="#001220"></rect><path d="M0 344L22.8 342.3C45.7 340.7 91.3 337.3 137 338.5C182.7 339.7 228.3 345.3 274 347.7C319.7 350 365.3 349 411.2 356.2C457 363.3 503 378.7 548.8 374.8C594.7 371 640.3 348 686 336.5C731.7 325 777.3 325 823 331.8C868.7 338.7 914.3 352.3 937.2 359.2L960 366L960 541L937.2 541C914.3 541 868.7 541 823 541C777.3 541 731.7 541 686 541C640.3 541 594.7 541 548.8 541C503 541 457 541 411.2 541C365.3 541 319.7 541 274 541C228.3 541 182.7 541 137 541C91.3 541 45.7 541 22.8 541L0 541Z" fill="#fa7268"></path><path d="M0 393L22.8 389.3C45.7 385.7 91.3 378.3 137 375.8C182.7 373.3 228.3 375.7 274 376.7C319.7 377.7 365.3 377.3 411.2 386.2C457 395 503 413 548.8 417.5C594.7 422 640.3 413 686 409.2C731.7 405.3 777.3 406.7 823 410.8C868.7 415 914.3 422 937.2 425.5L960 429L960 541L937.2 541C914.3 541 868.7 541 823 541C777.3 541 731.7 541 686 541C640.3 541 594.7 541 548.8 541C503 541 457 541 411.2 541C365.3 541 319.7 541 274 541C228.3 541 182.7 541 137 541C91.3 541 45.7 541 22.8 541L0 541Z" fill="#ef5f67"></path><path d="M0 426L22.8 427.5C45.7 429 91.3 432 137 436.7C182.7 441.3 228.3 447.7 274 451.8C319.7 456 365.3 458 411.2 452C457 446 503 432 548.8 423.8C594.7 415.7 640.3 413.3 686 411.3C731.7 409.3 777.3 407.7 823 409.3C868.7 411 914.3 416 937.2 418.5L960 421L960 541L937.2 541C914.3 541 868.7 541 823 541C777.3 541 731.7 541 686 541C640.3 541 594.7 541 548.8 541C503 541 457 541 411.2 541C365.3 541 319.7 541 274 541C228.3 541 182.7 541 137 541C91.3 541 45.7 541 22.8 541L0 541Z" fill="#e34c67"></path><path d="M0 466L22.8 466.2C45.7 466.3 91.3 466.7 137 464.5C182.7 462.3 228.3 457.7 274 455.7C319.7 453.7 365.3 454.3 411.2 459.3C457 464.3 503 473.7 548.8 472.8C594.7 472 640.3 461 686 459.8C731.7 458.7 777.3 467.3 823 471C868.7 474.7 914.3 473.3 937.2 472.7L960 472L960 541L937.2 541C914.3 541 868.7 541 823 541C777.3 541 731.7 541 686 541C640.3 541 594.7 541 548.8 541C503 541 457 541 411.2 541C365.3 541 319.7 541 274 541C228.3 541 182.7 541 137 541C91.3 541 45.7 541 22.8 541L0 541Z" fill="#d53867"></path><path d="M0 516L22.8 510.2C45.7 504.3 91.3 492.7 137 490.2C182.7 487.7 228.3 494.3 274 494.5C319.7 494.7 365.3 488.3 411.2 486.8C457 485.3 503 488.7 548.8 494.3C594.7 500 640.3 508 686 511.7C731.7 515.3 777.3 514.7 823 510.5C868.7 506.3 914.3 498.7 937.2 494.8L960 491L960 541L937.2 541C914.3 541 868.7 541 823 541C777.3 541 731.7 541 686 541C640.3 541 594.7 541 548.8 541C503 541 457 541 411.2 541C365.3 541 319.7 541 274 541C228.3 541 182.7 541 137 541C91.3 541 45.7 541 22.8 541L0 541Z" fill="#c62368"></path></svg>